<svg xmlns="http://www.w3.org/2000/svg" width="800" height="1000" viewBox="0 0 800 1000" role="img" aria-label="Porträt einsetzen">
<rect width="800" height="1000" fill="#101624"/>
<line x1="-1000" y1="0" x2="0" y2="1000" stroke="#3A2F6B" stroke-width="1" opacity="0.5"/>
<line x1="-954" y1="0" x2="46" y2="1000" stroke="#3A2F6B" stroke-width="1" opacity="0.5"/>
<line x1="-908" y1="0" x2="92" y2="1000" stroke="#3A2F6B" stroke-width="1" opacity="0.5"/>
<line x1="-862" y1="0" x2="138" y2="1000" stroke="#3A2F6B" stroke-width="1" opacity="0.5"/>
<line x1="-816" y1="0" x2="184" y2="1000" stroke="#3A2F6B" stroke-width="1" opacity="0.5"/>
<line x1="-770" y1="0" x2="230" y2="1000" stroke="#3A2F6B" stroke-width="1" opacity="0.5"/>
<line x1="-724" y1="0" x2="276" y2="1000" stroke="#3A2F6B" stroke-width="1" opacity="0.5"/>
<line x1="-678" y1="0" x2="322" y2="1000" stroke="#3A2F6B" stroke-width="1" opacity="0.5"/>
<line x1="-632" y1="0" x2="368" y2="1000" stroke="#3A2F6B" stroke-width="1" opacity="0.5"/>
<line x1="-586" y1="0" x2="414" y2="1000" stroke="#3A2F6B" stroke-width="1" opacity="0.5"/>
<line x1="-540" y1="0" x2="460" y2="1000" stroke="#3A2F6B" stroke-width="1" opacity="0.5"/>
<line x1="-494" y1="0" x2="506" y2="1000" stroke="#3A2F6B" stroke-width="1" opacity="0.5"/>
<line x1="-448" y1="0" x2="552" y2="1000" stroke="#3A2F6B" stroke-width="1" opacity="0.5"/>
<line x1="-402" y1="0" x2="598" y2="1000" stroke="#3A2F6B" stroke-width="1" opacity="0.5"/>
<line x1="-356" y1="0" x2="644" y2="1000" stroke="#3A2F6B" stroke-width="1" opacity="0.5"/>
<line x1="-310" y1="0" x2="690" y2="1000" stroke="#3A2F6B" stroke-width="1" opacity="0.5"/>
<line x1="-264" y1="0" x2="736" y2="1000" stroke="#3A2F6B" stroke-width="1" opacity="0.5"/>
<line x1="-218" y1="0" x2="782" y2="1000" stroke="#3A2F6B" stroke-width="1" opacity="0.5"/>
<line x1="-172" y1="0" x2="828" y2="1000" stroke="#3A2F6B" stroke-width="1" opacity="0.5"/>
<line x1="-126" y1="0" x2="874" y2="1000" stroke="#3A2F6B" stroke-width="1" opacity="0.5"/>
<line x1="-80" y1="0" x2="920" y2="1000" stroke="#3A2F6B" stroke-width="1" opacity="0.5"/>
<line x1="-34" y1="0" x2="966" y2="1000" stroke="#3A2F6B" stroke-width="1" opacity="0.5"/>
<line x1="12" y1="0" x2="1012" y2="1000" stroke="#3A2F6B" stroke-width="1" opacity="0.5"/>
<line x1="58" y1="0" x2="1058" y2="1000" stroke="#3A2F6B" stroke-width="1" opacity="0.5"/>
<line x1="104" y1="0" x2="1104" y2="1000" stroke="#3A2F6B" stroke-width="1" opacity="0.5"/>
<line x1="150" y1="0" x2="1150" y2="1000" stroke="#3A2F6B" stroke-width="1" opacity="0.5"/>
<line x1="196" y1="0" x2="1196" y2="1000" stroke="#3A2F6B" stroke-width="1" opacity="0.5"/>
<line x1="242" y1="0" x2="1242" y2="1000" stroke="#3A2F6B" stroke-width="1" opacity="0.5"/>
<line x1="288" y1="0" x2="1288" y2="1000" stroke="#3A2F6B" stroke-width="1" opacity="0.5"/>
<line x1="334" y1="0" x2="1334" y2="1000" stroke="#3A2F6B" stroke-width="1" opacity="0.5"/>
<line x1="380" y1="0" x2="1380" y2="1000" stroke="#3A2F6B" stroke-width="1" opacity="0.5"/>
<line x1="426" y1="0" x2="1426" y2="1000" stroke="#3A2F6B" stroke-width="1" opacity="0.5"/>
<line x1="472" y1="0" x2="1472" y2="1000" stroke="#3A2F6B" stroke-width="1" opacity="0.5"/>
<line x1="518" y1="0" x2="1518" y2="1000" stroke="#3A2F6B" stroke-width="1" opacity="0.5"/>
<line x1="564" y1="0" x2="1564" y2="1000" stroke="#3A2F6B" stroke-width="1" opacity="0.5"/>
<line x1="610" y1="0" x2="1610" y2="1000" stroke="#3A2F6B" stroke-width="1" opacity="0.5"/>
<line x1="656" y1="0" x2="1656" y2="1000" stroke="#3A2F6B" stroke-width="1" opacity="0.5"/>
<line x1="702" y1="0" x2="1702" y2="1000" stroke="#3A2F6B" stroke-width="1" opacity="0.5"/>
<line x1="748" y1="0" x2="1748" y2="1000" stroke="#3A2F6B" stroke-width="1" opacity="0.5"/>
<line x1="794" y1="0" x2="1794" y2="1000" stroke="#3A2F6B" stroke-width="1" opacity="0.5"/>
<line x1="840" y1="0" x2="1840" y2="1000" stroke="#3A2F6B" stroke-width="1" opacity="0.5"/>
<line x1="886" y1="0" x2="1886" y2="1000" stroke="#3A2F6B" stroke-width="1" opacity="0.5"/>
<line x1="932" y1="0" x2="1932" y2="1000" stroke="#3A2F6B" stroke-width="1" opacity="0.5"/>
<line x1="978" y1="0" x2="1978" y2="1000" stroke="#3A2F6B" stroke-width="1" opacity="0.5"/>
<line x1="1024" y1="0" x2="2024" y2="1000" stroke="#3A2F6B" stroke-width="1" opacity="0.5"/>
<line x1="1070" y1="0" x2="2070" y2="1000" stroke="#3A2F6B" stroke-width="1" opacity="0.5"/>
<line x1="1116" y1="0" x2="2116" y2="1000" stroke="#3A2F6B" stroke-width="1" opacity="0.5"/>
<line x1="1162" y1="0" x2="2162" y2="1000" stroke="#3A2F6B" stroke-width="1" opacity="0.5"/>
<line x1="1208" y1="0" x2="2208" y2="1000" stroke="#3A2F6B" stroke-width="1" opacity="0.5"/>
<line x1="1254" y1="0" x2="2254" y2="1000" stroke="#3A2F6B" stroke-width="1" opacity="0.5"/>
<line x1="1300" y1="0" x2="2300" y2="1000" stroke="#3A2F6B" stroke-width="1" opacity="0.5"/>
<line x1="1346" y1="0" x2="2346" y2="1000" stroke="#3A2F6B" stroke-width="1" opacity="0.5"/>
<line x1="1392" y1="0" x2="2392" y2="1000" stroke="#3A2F6B" stroke-width="1" opacity="0.5"/>
<line x1="1438" y1="0" x2="2438" y2="1000" stroke="#3A2F6B" stroke-width="1" opacity="0.5"/>
<line x1="1484" y1="0" x2="2484" y2="1000" stroke="#3A2F6B" stroke-width="1" opacity="0.5"/>
<line x1="1530" y1="0" x2="2530" y2="1000" stroke="#3A2F6B" stroke-width="1" opacity="0.5"/>
<line x1="1576" y1="0" x2="2576" y2="1000" stroke="#3A2F6B" stroke-width="1" opacity="0.5"/>
<line x1="1622" y1="0" x2="2622" y2="1000" stroke="#3A2F6B" stroke-width="1" opacity="0.5"/>
<line x1="1668" y1="0" x2="2668" y2="1000" stroke="#3A2F6B" stroke-width="1" opacity="0.5"/>
<line x1="1714" y1="0" x2="2714" y2="1000" stroke="#3A2F6B" stroke-width="1" opacity="0.5"/>
<line x1="1760" y1="0" x2="2760" y2="1000" stroke="#3A2F6B" stroke-width="1" opacity="0.5"/>
<circle cx="677" cy="959" r="47" fill="none" stroke="#7C5CF0" stroke-width="1.5" opacity="0.35"/>
<circle cx="274" cy="210" r="114" fill="none" stroke="#7C5CF0" stroke-width="1.5" opacity="0.35"/>
<circle cx="671" cy="461" r="91" fill="none" stroke="#7C5CF0" stroke-width="1.5" opacity="0.35"/>
<rect x="24" y="936" width="180" height="28" rx="6" fill="#7C5CF0" opacity="0.85"/>
<text x="400.0" y="490.0" text-anchor="middle" font-family="monospace" font-size="30" fill="#EDEBF7">Porträt einsetzen</text>
<text x="400.0" y="524.0" text-anchor="middle" font-family="monospace" font-size="15" fill="#8B90A7">800 × 1000 · eigenes Foto</text>
</svg>