<svg xmlns="http://www.w3.org/2000/svg" width="400" height="400" viewBox="0 0 400 400" role="img"><rect width="400" height="400" fill="#101624"/><line x1="-400" y1="0" x2="0" y2="400" stroke="#3A2F6B" stroke-width="1" opacity="0.5"/><line x1="-340" y1="0" x2="60" y2="400" stroke="#3A2F6B" stroke-width="1" opacity="0.5"/><line x1="-280" y1="0" x2="120" y2="400" stroke="#3A2F6B" stroke-width="1" opacity="0.5"/><line x1="-220" y1="0" x2="180" y2="400" stroke="#3A2F6B" stroke-width="1" opacity="0.5"/><line x1="-160" y1="0" x2="240" y2="400" stroke="#3A2F6B" stroke-width="1" opacity="0.5"/><line x1="-100" y1="0" x2="300" y2="400" stroke="#3A2F6B" stroke-width="1" opacity="0.5"/><line x1="-40" y1="0" x2="360" y2="400" stroke="#3A2F6B" stroke-width="1" opacity="0.5"/><line x1="20" y1="0" x2="420" y2="400" stroke="#3A2F6B" stroke-width="1" opacity="0.5"/><line x1="80" y1="0" x2="480" y2="400" stroke="#3A2F6B" stroke-width="1" opacity="0.5"/><line x1="140" y1="0" x2="540" y2="400" stroke="#3A2F6B" stroke-width="1" opacity="0.5"/><line x1="200" y1="0" x2="600" y2="400" stroke="#3A2F6B" stroke-width="1" opacity="0.5"/><line x1="260" y1="0" x2="660" y2="400" stroke="#3A2F6B" stroke-width="1" opacity="0.5"/><line x1="320" y1="0" x2="720" y2="400" stroke="#3A2F6B" stroke-width="1" opacity="0.5"/><line x1="380" y1="0" x2="780" y2="400" stroke="#3A2F6B" stroke-width="1" opacity="0.5"/><line x1="440" y1="0" x2="840" y2="400" stroke="#3A2F6B" stroke-width="1" opacity="0.5"/><line x1="500" y1="0" x2="900" y2="400" stroke="#3A2F6B" stroke-width="1" opacity="0.5"/><line x1="560" y1="0" x2="960" y2="400" stroke="#3A2F6B" stroke-width="1" opacity="0.5"/><line x1="620" y1="0" x2="1020" y2="400" stroke="#3A2F6B" stroke-width="1" opacity="0.5"/><line x1="680" y1="0" x2="1080" y2="400" stroke="#3A2F6B" stroke-width="1" opacity="0.5"/><line x1="740" y1="0" x2="1140" y2="400" stroke="#3A2F6B" stroke-width="1" opacity="0.5"/><circle cx="299" cy="33" r="69" fill="none" stroke="#7C5CF0" stroke-width="2" opacity="0.4"/><text x="200" y="215" text-anchor="middle" font-family="monospace" font-size="72" fill="#EDEBF7">❯_</text><text x="200" y="360" text-anchor="middle" font-family="monospace" font-size="16" fill="#8B90A7">Demo-Bild 1:1</text></svg>